<?xml version="1.0" encoding="iso-8859-1"?>
<!-- Generator: Adobe Illustrator 19.0.0, SVG Export Plug-In . SVG Version: 6.00 Build 0)  -->
<svg version="1.1" id="Layer_1" xmlns="http://www.w3.org/2000/svg" xmlns:xlink="http://www.w3.org/1999/xlink" x="0px" y="0px"
	 viewBox="0 0 512 512" style="enable-background:new 0 0 512 512;" xml:space="preserve">
<g>
	<g>
		<g>
			<path d="M213.34,256.397c0-11.776-9.557-21.333-21.333-21.333s-21.333,9.557-21.333,21.333s9.557,21.333,21.333,21.333
				S213.34,268.173,213.34,256.397z"/>
			<path d="M479.654,197.033C456.478,93.573,365.53,21.333,256,21.333c-109.095,0-200.403,73.944-223.638,177.966
				C13.191,211.908,0,235.073,0,258.283c0,24.345,13.297,46.021,33.734,57.525C61.671,416.092,152.723,490.667,256,490.667
				c102.917,0,194.22-76.206,222.288-177.14C498.708,302.029,512,280.339,512,256C512,232.808,498.81,209.633,479.654,197.033z
				 M140.849,103.046c24.178-18.738,53.035-31.37,84.386-36.399c35.587,12.388,93.835,61.669,128.491,112.061
				c34.181,49.7,40.164,87.715,15.432,111.158c-28.048-44.71-51.741-75.914-83.562-106.089
				c-44.756-42.441-94.799-68.966-151.176-75.511L140.849,103.046z M453.276,278.169c-6.992,2.375-12.258,8.198-13.922,15.392
				C419.146,380.927,341.757,448,256,448c-86.326,0-163.304-65.498-183.332-152.153c-1.662-7.19-6.922-13.011-13.908-15.39
				c-9.605-3.271-16.093-12.089-16.093-22.174c0-10.028,7.844-21.672,16.528-25.128c6.869-2.734,11.834-8.829,13.12-16.11
				c4.38-24.792,13.437-47.637,26.201-67.703h8.153c99.79,0,165.243,62.068,237.755,181.723c5.786,9.547,17.953,13.019,27.906,7.964
				c71.308-36.222,69.398-107.656,16.551-184.498c-20.411-29.678-47.661-58.756-75.549-82.112
				c65.143,19.833,114.121,73.099,126.375,142.37c1.288,7.284,6.258,13.38,13.132,16.111c8.646,3.434,16.493,15.089,16.493,25.101
				C469.333,266.089,462.842,274.919,453.276,278.169z"/>
			<path d="M196.653,392.05c-7.341,9.216-5.821,22.637,3.394,29.978c9.216,7.341,22.637,5.821,29.978-3.394
				c35.937-45.114,57.446-45.01,69.66-6.797c3.587,11.223,15.593,17.413,26.816,13.826c11.223-3.587,17.413-15.593,13.826-26.815
				C316.237,323.475,251.528,323.162,196.653,392.05z"/>
		</g>
	</g>
</g>
<g>
</g>
<g>
</g>
<g>
</g>
<g>
</g>
<g>
</g>
<g>
</g>
<g>
</g>
<g>
</g>
<g>
</g>
<g>
</g>
<g>
</g>
<g>
</g>
<g>
</g>
<g>
</g>
<g>
</g>
</svg>
